<svg width="19" height="18" viewBox="0 0 19 18" fill="none" xmlns="http://www.w3.org/2000/svg">
<g clip-path="url(#clip0_6431_7609)">
<path d="M5.75 5.25H5C4.60218 5.25 4.22064 5.40804 3.93934 5.68934C3.65804 5.97064 3.5 6.35218 3.5 6.75V13.5C3.5 13.8978 3.65804 14.2794 3.93934 14.5607C4.22064 14.842 4.60218 15 5 15H11.75C12.1478 15 12.5294 14.842 12.8107 14.5607C13.092 14.2794 13.25 13.8978 13.25 13.5V12.75" stroke="#2F7973" stroke-width="1.5" stroke-linecap="round" stroke-linejoin="round"/>
<path d="M15.7888 4.93883C16.0841 4.64345 16.2501 4.24282 16.2501 3.82508C16.2501 3.40734 16.0841 3.00672 15.7888 2.71133C15.4934 2.41595 15.0927 2.25 14.675 2.25C14.2573 2.25 13.8566 2.41595 13.5613 2.71133L7.25 9.00008V11.2501H9.5L15.7888 4.93883Z" stroke="#2F7973" stroke-width="1.5" stroke-linecap="round" stroke-linejoin="round"/>
<path d="M12.5 3.75L14.75 6" stroke="#2F7973" stroke-width="1.5" stroke-linecap="round" stroke-linejoin="round"/>
</g>
<defs>
<clipPath id="clip0_6431_7609">
<rect width="18" height="18" fill="white" transform="translate(0.5)"/>
</clipPath>
</defs>
</svg>
