<svg width="20" height="20" viewBox="0 0 20 20" fill="none" xmlns="http://www.w3.org/2000/svg">
<g clip-path="url(#clip0_5077_35670)">
<path d="M16.5625 5.22498C17.1458 5.55665 17.5042 6.17748 17.5 6.84832V12.9183C17.5 13.5925 17.1308 14.2142 16.535 14.5417L10.91 18.1C10.6311 18.2531 10.3181 18.3334 10 18.3334C9.68186 18.3334 9.36887 18.2531 9.09 18.1L3.465 14.5417C3.17347 14.3823 2.9301 14.1476 2.76034 13.862C2.59058 13.5765 2.50067 13.2505 2.5 12.9183V6.84748C2.5 6.17332 2.86917 5.55248 3.465 5.22498L9.09 1.90832C9.37711 1.75001 9.69964 1.66699 10.0275 1.66699C10.3554 1.66699 10.6779 1.75001 10.965 1.90832L16.59 5.22498H16.5625Z" stroke="black" stroke-width="1.5" stroke-linecap="round" stroke-linejoin="round"/>
<path d="M10 13.3335V13.3435" stroke="black" stroke-width="1.5" stroke-linecap="round" stroke-linejoin="round"/>
<path d="M10 10.8331C10.3748 10.8343 10.739 10.709 11.0339 10.4777C11.3287 10.2463 11.537 9.9223 11.625 9.55799C11.7131 9.19369 11.6758 8.81034 11.5191 8.46985C11.3625 8.12937 11.0956 7.85162 10.7617 7.68147C10.4301 7.51165 10.0509 7.45899 9.68567 7.53207C9.32043 7.60515 8.99066 7.79966 8.75 8.08397" stroke="black" stroke-width="1.5" stroke-linecap="round" stroke-linejoin="round"/>
</g>
<defs>
<clipPath id="clip0_5077_35670">
<rect width="20" height="20" fill="white"/>
</clipPath>
</defs>
</svg>
