<svg width="17" height="16" viewBox="0 0 17 16" fill="none" xmlns="http://www.w3.org/2000/svg">
<g clip-path="url(#clip0_4862_61910)">
<path d="M6.22027 4.89328L1.96694 5.50995L1.89161 5.52528C1.77757 5.55556 1.6736 5.61555 1.59034 5.69915C1.50707 5.78274 1.44748 5.88694 1.41765 6.0011C1.38782 6.11526 1.38883 6.23529 1.42056 6.34893C1.45229 6.46257 1.51362 6.56576 1.59827 6.64795L4.67961 9.64728L3.95294 13.8839L3.94427 13.9573C3.93729 14.0752 3.96179 14.1929 4.01524 14.2983C4.0687 14.4037 4.1492 14.4929 4.2485 14.557C4.3478 14.621 4.46233 14.6575 4.58037 14.6627C4.69841 14.6679 4.81572 14.6416 4.92027 14.5866L8.72427 12.5866L12.5196 14.5866L12.5863 14.6173C12.6963 14.6606 12.8159 14.6739 12.9328 14.6558C13.0496 14.6377 13.1596 14.5888 13.2513 14.5141C13.3431 14.4395 13.4133 14.3418 13.4548 14.231C13.4963 14.1203 13.5077 14.0005 13.4876 13.8839L12.7603 9.64728L15.8429 6.64728L15.8949 6.59062C15.9692 6.49913 16.0179 6.38958 16.0361 6.27315C16.0542 6.15671 16.0412 6.03753 15.9983 5.92777C15.9554 5.818 15.8842 5.72157 15.7919 5.64829C15.6996 5.57501 15.5896 5.52751 15.4729 5.51062L11.2196 4.89328L9.31827 1.03995C9.26326 0.928305 9.17809 0.834292 9.0724 0.768551C8.96672 0.702811 8.84474 0.667969 8.72027 0.667969C8.59581 0.667969 8.47383 0.702811 8.36815 0.768551C8.26246 0.834292 8.17729 0.928305 8.12227 1.03995L6.22027 4.89328Z" fill="#FF8A00"/>
</g>
<defs>
<clipPath id="clip0_4862_61910">
<rect width="16" height="16" fill="white" transform="translate(0.724121)"/>
</clipPath>
</defs>
</svg>
