<svg width="20" height="20" viewBox="0 0 20 20" fill="none" xmlns="http://www.w3.org/2000/svg">
<path d="M5.60829 16.4165C6.29163 15.6832 7.33329 15.7415 7.93329 16.5415L8.77496 17.6665C9.44996 18.5582 10.5416 18.5582 11.2166 17.6665L12.0583 16.5415C12.6583 15.7415 13.7 15.6832 14.3833 16.4165C15.8666 17.9998 17.075 17.4748 17.075 15.2582V5.8665C17.0833 2.50817 16.3 1.6665 13.15 1.6665H6.84996C3.69996 1.6665 2.91663 2.50817 2.91663 5.8665V15.2498C2.91663 17.4748 4.13329 17.9915 5.60829 16.4165Z" stroke="black" stroke-width="1.5" stroke-linecap="round" stroke-linejoin="round"/>
<path d="M7.5 10.8335L12.5 5.8335" stroke="black" stroke-width="1.5" stroke-linecap="round" stroke-linejoin="round"/>
<path d="M12.4955 10.8332H12.5029" stroke="black" stroke-width="2" stroke-linecap="round" stroke-linejoin="round"/>
<path d="M7.49546 6.25016H7.50295" stroke="black" stroke-width="2" stroke-linecap="round" stroke-linejoin="round"/>
</svg>
