<svg width="27" height="27" viewBox="0 0 27 27" fill="none" xmlns="http://www.w3.org/2000/svg">
<path d="M8.20065 0.845593C9.76046 0.787898 11.5335 0.75 13.5 0.75C15.4665 0.75 17.2395 0.787898 18.7993 0.845593C23.0035 1.0011 26.1564 4.31264 26.217 8.54494C26.2373 9.96429 26.25 11.6079 26.25 13.5C26.25 15.4089 26.2371 17.0649 26.2164 18.4928C26.1555 22.7086 23.0237 26.0024 18.8379 26.1555C17.2767 26.2126 15.4931 26.25 13.5 26.25C11.5069 26.25 9.72334 26.2126 8.16212 26.1555C3.97627 26.0024 0.844506 22.7086 0.783552 18.4928C0.762906 17.0649 0.75 15.4089 0.75 13.5C0.75 11.6079 0.762679 9.96429 0.783008 8.54494C0.843626 4.31264 3.99652 1.0011 8.20065 0.845593Z" fill="#E2F3F2" stroke="#61C0B9" stroke-width="1.5"/>
<path d="M12.25 12.25V16M14.75 12.25V16M17.25 9.75V17.25C17.25 17.9404 16.6904 18.5 16 18.5H11C10.3096 18.5 9.75 17.9404 9.75 17.25V9.75M8.5 9.75H18.5M15.375 9.75V9.125C15.375 8.43464 14.8154 7.875 14.125 7.875H12.875C12.1846 7.875 11.625 8.43464 11.625 9.125V9.75" stroke="#39938C" stroke-width="1.5" stroke-linecap="round" stroke-linejoin="round"/>
</svg>
